# xmcd
#
# Track frame offsets:
#	150
#	15245
#	30777
#	46864
#	61950
#	75712
#	89460
#	103055
#	117667
#
# Disc length: 1655 seconds
#
# Revision: 1
# Processed by: cddbd v1.5.2PL0 Copyright (c) Steve Scherf et al.
# Submitted via: audiograbber 1.83.01
#
DISCID=62067509
DTITLE=Roy Rogers, Jr. and the High Riders - Roy Rogers, Jr. and the High Riders
DYEAR=2000
DGENRE=Country
TTITLE0=King of the Cowboys
TTITLE1=Ghost Riders
TTITLE2=Pretend
TTITLE3=High Riders
TTITLE4=Peaceful Praire Nights
TTITLE5=How Do You Talk to an Angel?
TTITLE6=Eyes of a Fool
TTITLE7=Queen of the Starlight Ballroom
TTITLE8=Happy Trails
EXTD=
EXTT0=
EXTT1=
EXTT2=
EXTT3=
EXTT4=
EXTT5=
EXTT6=
EXTT7=
EXTT8=
PLAYORDER=
